<svg id="svg" version="1.1" xmlns="http://www.w3.org/2000/svg" xmlns:xlink="http://www.w3.org/1999/xlink" width="400" height="400" viewBox="0, 0, 400,400"><g id="svgg"><path id="path0" d="M82.296 46.539 C 66.438 51.495,64.697 54.355,44.758 108.227 L 29.614 149.145 18.756 159.829 C -1.049 179.317,-0.091 174.131,0.198 260.256 L 0.427 328.632 3.157 334.394 C 6.689 341.851,12.850 348.012,20.307 351.544 L 26.068 354.274 47.009 354.274 L 67.949 354.274 73.710 351.544 C 88.045 344.754,93.461 334.977,93.862 315.171 L 94.135 301.709 200.000 301.709 L 305.865 301.709 306.138 315.171 C 306.539 334.977,311.955 344.754,326.290 351.544 L 332.051 354.274 352.991 354.274 L 373.932 354.274 379.693 351.544 C 387.150 348.012,393.311 341.851,396.843 334.394 L 399.573 328.632 399.801 258.625 C 400.081 172.830,400.710 176.842,384.177 158.962 L 376.350 150.498 360.611 107.949 C 341.213 55.508,338.609 51.273,322.910 46.611 C 316.766 44.786,88.123 44.718,82.296 46.539 M318.877 64.214 C 325.729 67.330,327.136 69.835,337.134 96.724 C 342.262 110.513,348.467 127.179,350.924 133.761 L 355.392 145.726 346.387 145.970 C 335.863 146.255,336.960 146.846,335.379 140.044 C 321.306 79.537,233.165 82.411,220.125 143.803 L 219.626 146.154 134.927 146.154 C 54.678 146.154,50.249 146.075,50.630 144.658 C 52.871 136.315,77.521 72.473,79.423 70.085 C 82.253 66.532,86.289 64.020,90.517 63.181 C 97.746 61.746,315.617 62.732,318.877 64.214 M287.922 114.917 C 301.955 118.652,314.557 130.925,317.582 143.803 L 318.134 146.154 278.298 146.154 C 232.484 146.154,236.518 147.170,241.452 136.874 C 249.764 119.530,269.758 110.082,287.922 114.917 M370.410 170.735 C 374.262 174.921,378.103 180.100,379.384 182.831 L 381.624 187.607 381.624 230.055 L 381.624 272.502 379.052 276.162 C 377.495 278.378,374.807 280.682,372.237 282.005 L 367.995 284.188 203.063 284.415 C 12.300 284.676,25.888 285.424,19.658 274.321 L 17.521 270.513 17.245 236.807 C 16.843 187.666,17.228 186.035,32.710 171.314 L 41.193 163.248 202.434 163.331 L 363.675 163.414 370.410 170.735 M42.424 199.689 L 40.171 201.943 40.171 228.205 L 40.171 254.468 42.424 256.721 L 44.678 258.974 80.769 258.974 L 116.861 258.974 119.114 256.721 L 121.368 254.468 121.368 228.205 L 121.368 201.943 119.114 199.689 L 116.861 197.436 80.769 197.436 L 44.678 197.436 42.424 199.689 M280.886 199.689 L 278.632 201.943 278.632 228.205 L 278.632 254.468 280.886 256.721 L 283.139 258.974 319.231 258.974 L 355.322 258.974 357.576 256.721 L 359.829 254.468 359.829 228.205 L 359.829 201.943 357.576 199.689 L 355.322 197.436 319.231 197.436 L 283.139 197.436 280.886 199.689 M152.560 208.901 C 148.729 212.731,148.729 218.038,152.560 221.868 L 154.623 223.932 200.000 223.932 L 245.377 223.932 247.440 221.868 C 251.271 218.038,251.271 212.731,247.440 208.901 L 245.377 206.838 200.000 206.838 L 154.623 206.838 152.560 208.901 M104.274 228.205 L 104.274 241.880 80.769 241.880 L 57.265 241.880 57.265 228.205 L 57.265 214.530 80.769 214.530 L 104.274 214.530 104.274 228.205 M342.735 228.205 L 342.735 241.880 319.231 241.880 L 295.726 241.880 295.726 228.205 L 295.726 214.530 319.231 214.530 L 342.735 214.530 342.735 228.205 M152.560 235.396 C 148.729 239.227,148.729 244.533,152.560 248.364 L 154.623 250.427 200.000 250.427 L 245.377 250.427 247.440 248.364 C 251.271 244.533,251.271 239.227,247.440 235.396 L 245.377 233.333 200.000 233.333 L 154.623 233.333 152.560 235.396 M51.182 301.543 L 77.150 301.803 76.742 312.407 C 75.928 333.526,69.653 338.244,43.458 337.430 C 21.831 336.758,17.094 331.326,17.094 307.196 L 17.094 297.532 21.154 299.407 C 25.005 301.186,26.549 301.295,51.182 301.543 M382.079 321.233 C 379.936 332.941,373.700 336.897,356.542 337.430 C 330.347 338.244,324.072 333.526,323.258 312.407 L 322.850 301.803 348.818 301.543 C 372.946 301.301,375.059 301.157,378.632 299.515 L 382.479 297.748 382.721 307.073 C 382.854 312.201,382.565 318.573,382.079 321.233 " stroke="none" fill="#000000" fill-rule="evenodd"></path></g></svg>