<svg id="svg" version="1.1" xmlns="http://www.w3.org/2000/svg" xmlns:xlink="http://www.w3.org/1999/xlink" width="400" height="400" viewBox="0, 0, 400,400"><g id="svgg"><path id="path0" d="M96.474 33.282 C 82.441 40.228,82.562 60.869,96.680 68.286 C 99.425 69.728,101.876 70.090,110.839 70.376 L 121.678 70.722 127.076 82.480 L 132.474 94.238 119.999 120.625 C 108.944 144.009,107.332 146.966,105.837 146.601 C 74.512 138.959,50.717 143.191,29.603 160.156 C -21.587 201.291,-3.843 283.530,59.769 299.961 L 67.635 301.993 33.817 302.034 L 0.000 302.075 0.000 309.129 L 0.000 316.183 199.170 316.183 L 398.340 316.183 398.340 309.129 L 398.340 302.075 370.332 302.014 C 342.419 301.954,342.338 301.948,346.473 300.472 C 413.279 276.629,418.960 182.838,355.521 151.107 C 339.126 142.907,314.759 140.321,298.437 145.049 C 294.839 146.091,291.772 146.820,291.621 146.669 C 291.192 146.240,251.499 60.344,250.976 58.714 C 250.541 57.357,251.881 57.261,271.396 57.261 L 292.282 57.261 295.104 60.083 C 301.597 66.576,297.270 75.001,286.809 76.236 C 273.026 77.862,275.708 91.248,289.586 90.100 C 314.858 88.011,320.874 55.293,297.902 44.873 C 294.404 43.287,292.531 43.189,265.298 43.172 C 225.830 43.147,227.280 41.675,239.841 69.016 C 244.483 79.121,248.476 87.895,248.713 88.514 C 249.074 89.455,240.689 89.604,197.470 89.425 L 145.795 89.212 141.819 80.498 C 139.633 75.705,137.824 71.557,137.801 71.280 C 137.778 71.003,140.009 70.541,142.759 70.253 C 161.220 68.324,166.144 43.708,149.465 36.739 C 140.881 33.152,101.877 30.608,96.474 33.282 M144.197 50.083 C 145.794 51.070,145.424 54.608,143.623 55.572 C 141.326 56.802,105.829 56.718,103.472 55.477 C 98.925 53.084,99.516 47.026,104.445 45.515 C 105.982 45.043,142.908 49.286,144.197 50.083 M246.646 105.187 C 246.252 105.985,236.448 126.712,224.858 151.245 L 203.787 195.851 199.196 195.829 L 194.606 195.807 173.859 150.478 C 162.448 125.547,152.988 104.831,152.835 104.442 C 152.683 104.053,173.889 103.734,199.960 103.734 C 244.823 103.734,247.323 103.812,246.646 105.187 M161.201 156.938 L 181.739 201.825 178.419 205.596 C 176.593 207.671,174.667 210.808,174.140 212.568 L 173.181 215.768 166.337 215.768 L 159.492 215.768 158.902 211.411 C 156.058 190.404,142.717 168.666,125.487 156.966 C 121.350 154.156,120.452 153.169,121.006 152.037 C 121.387 151.259,125.779 141.941,130.766 131.331 C 135.754 120.721,140.021 112.043,140.249 112.046 C 140.477 112.049,149.906 132.250,161.201 156.938 M269.349 132.972 L 278.564 152.974 272.684 156.910 C 218.608 193.114,229.788 278.476,291.478 300.399 C 295.794 301.933,294.528 301.953,193.361 301.948 C 103.693 301.943,91.546 301.798,96.266 300.786 C 128.046 293.971,151.818 269.457,158.215 236.904 L 159.595 229.876 166.312 229.879 L 173.029 229.882 174.521 233.510 C 181.864 251.368,207.878 254.965,219.880 239.781 C 228.036 229.463,227.660 213.673,219.042 204.564 L 216.686 202.075 237.982 157.094 C 249.695 132.355,259.471 112.306,259.706 112.542 C 259.942 112.777,264.281 121.971,269.349 132.972 M96.897 158.919 C 99.298 159.676,101.113 160.547,100.930 160.853 C 97.323 166.900,73.029 220.514,73.029 222.428 C 73.029 229.733,73.786 229.876,112.610 229.876 L 145.303 229.876 144.739 232.988 C 135.347 284.785,73.065 306.197,34.811 270.780 C -4.086 234.769,13.073 171.040,65.145 158.118 C 71.753 156.479,90.673 156.956,96.897 158.919 M334.100 158.515 C 395.905 174.221,402.845 258.437,344.402 283.531 C 289.525 307.093,233.782 249.337,259.024 195.068 C 264.341 183.637,279.384 166.748,284.186 166.818 C 284.668 166.825,291.178 180.175,298.653 196.486 C 313.616 229.134,313.793 229.423,318.765 229.423 C 328.513 229.423,327.806 225.585,311.588 190.453 C 304.040 174.103,298.172 160.417,298.548 160.041 C 301.693 156.896,323.966 155.939,334.100 158.515 M118.572 169.636 C 132.117 179.579,142.030 195.844,144.792 212.656 L 145.303 215.768 118.295 215.768 C 103.440 215.768,91.286 215.499,91.286 215.171 C 91.286 214.257,113.897 166.805,114.333 166.805 C 114.543 166.805,116.451 168.079,118.572 169.636 M321.005 170.899 C 316.031 174.812,317.650 181.866,323.864 183.356 C 325.801 183.820,329.627 184.954,332.365 185.876 C 340.831 188.726,345.228 186.887,345.228 180.498 C 345.228 173.649,326.796 166.345,321.005 170.899 M352.552 190.073 C 348.834 192.242,349.019 196.048,353.259 204.647 C 357.550 213.348,358.527 221.956,356.552 233.670 C 354.541 245.597,367.815 246.221,370.613 234.331 C 375.784 212.349,363.974 183.409,352.552 190.073 M30.361 204.071 C 18.125 217.592,34.760 267.798,49.606 262.154 C 55.285 259.995,55.466 254.701,50.084 248.217 C 41.627 238.028,40.042 230.920,41.581 210.094 C 42.080 203.345,34.635 199.348,30.361 204.071 M205.609 211.614 C 213.873 216.652,213.585 228.528,205.078 233.496 C 197.135 238.135,186.445 232.034,186.445 222.862 C 186.445 213.033,197.395 206.606,205.609 211.614 M63.071 260.791 C 58.451 263.203,58.076 270.722,62.470 272.825 C 70.538 276.686,83.468 276.782,85.495 272.996 C 88.720 266.969,85.835 263.108,77.105 261.770 C 73.266 261.182,69.004 260.477,67.635 260.204 C 66.220 259.922,64.250 260.176,63.071 260.791 M8.299 356.846 C 6.046 359.099,6.046 364.552,8.299 366.805 C 9.916 368.422,11.065 368.465,53.112 368.465 C 102.093 368.465,99.585 368.823,99.585 361.826 C 99.585 354.828,102.093 355.187,53.112 355.187 C 11.065 355.187,9.916 355.229,8.299 356.846 M148.329 356.224 C 144.896 358.831,145.049 365.762,148.580 367.652 C 151.991 369.478,248.753 368.674,250.622 366.805 C 252.998 364.430,252.862 359.341,250.361 356.991 L 248.441 355.187 199.068 355.187 C 160.851 355.187,149.386 355.421,148.329 356.224 M300.318 356.758 C 298.840 357.955,298.378 359.162,298.378 361.826 C 298.378 368.771,296.220 368.465,345.175 368.465 L 388.092 368.465 389.897 366.544 C 392.370 363.912,392.314 359.371,389.781 356.991 L 387.860 355.187 345.059 355.187 C 304.300 355.187,302.166 355.262,300.318 356.758 " stroke="none" fill="#000000" fill-rule="evenodd"></path></g></svg>