<svg id="svg" version="1.1" xmlns="http://www.w3.org/2000/svg" xmlns:xlink="http://www.w3.org/1999/xlink" width="400" height="400" viewBox="0, 0, 400,400"><g id="svgg"><path id="path0" d="M99.224 0.858 C 73.170 6.311,51.184 25.503,43.719 49.309 C 42.297 53.845,42.088 54.073,38.531 54.968 C 0.074 64.652,-13.184 116.022,15.397 144.603 C 32.731 161.938,66.289 166.338,59.631 150.403 C 58.395 147.445,54.859 145.848,49.526 145.838 C 17.680 145.780,2.359 100.734,26.505 78.149 C 49.844 56.318,92.457 71.990,92.505 102.422 C 92.512 106.899,94.037 111.539,95.815 112.490 C 100.034 114.748,106.488 112.423,106.774 108.542 C 108.714 82.232,83.875 53.333,59.322 53.333 C 56.950 53.333,56.925 53.451,61.011 45.544 C 72.867 22.602,101.330 9.557,126.667 15.452 C 150.882 21.085,172.474 46.156,172.505 68.675 C 172.511 73.529,173.978 78.174,175.815 79.157 C 180.275 81.544,186.581 79.023,186.735 74.792 C 187.937 41.772,165.135 10.955,132.917 2.056 C 127.064 0.439,104.977 -0.346,99.224 0.858 M300.566 110.838 C 283.614 112.932,269.932 120.168,254.285 135.315 C 244.994 144.309,243.734 150.178,250.490 153.001 C 254.579 154.709,256.613 153.567,266.662 143.922 C 290.868 120.686,323.583 117.789,346.097 136.886 L 349.277 139.583 345.264 142.662 C 337.079 148.939,335.833 150.453,335.833 154.120 C 335.833 162.687,342.642 163.275,352.229 155.535 C 363.006 146.834,368.337 145.333,375.470 148.989 C 388.763 155.804,389.610 173.401,377.189 184.684 C 367.550 193.439,370.913 192.857,327.223 193.333 C 284.250 193.802,286.667 193.395,286.667 200.159 C 286.667 206.949,284.820 206.667,329.158 206.667 C 376.460 206.667,375.119 206.962,388.862 193.514 C 410.570 172.273,399.176 135.200,370.417 133.496 C 363.912 133.111,363.649 133.011,359.597 129.374 C 343.826 115.216,321.606 108.239,300.566 110.838 M202.263 121.042 C 201.219 121.824,147.542 233.448,131.750 267.675 L 129.554 272.434 123.802 256.842 C 104.413 204.286,105.542 206.667,100.000 206.667 C 95.135 206.667,96.055 204.939,50.444 299.716 C 4.409 395.373,4.698 394.698,8.333 398.333 C 10.966 400.966,389.034 400.966,391.667 398.333 C 394.955 395.045,394.236 392.801,369.616 329.606 C 345.088 266.645,345.098 266.667,340.000 266.667 C 335.618 266.667,335.423 266.908,322.244 288.551 L 310.186 308.353 261.552 215.652 C 234.802 164.667,212.260 122.287,211.458 121.476 C 209.747 119.744,204.334 119.489,202.263 121.042 M232.525 191.250 C 245.264 215.542,256.136 236.408,256.686 237.619 C 257.609 239.652,242.354 261.147,239.139 262.343 C 238.755 262.486,230.534 256.018,220.872 247.968 C 197.635 228.611,201.115 228.600,181.508 248.098 L 166.660 262.862 161.247 257.497 C 158.269 254.546,155.833 251.762,155.833 251.310 C 155.833 247.192,207.194 142.818,208.224 144.842 C 208.852 146.075,219.787 166.958,232.525 191.250 M75.000 148.333 C 73.889 149.444,73.333 151.111,73.333 153.333 C 73.333 159.468,74.635 160.000,89.638 160.000 C 96.772 160.000,103.295 159.633,104.134 159.184 C 107.770 157.238,107.770 149.429,104.134 147.482 C 100.932 145.769,76.861 146.472,75.000 148.333 M110.252 261.477 L 120.921 290.431 117.752 297.168 L 114.583 303.906 108.796 301.953 C 98.646 298.528,97.658 298.807,88.631 307.660 C 83.985 312.217,80.532 315.002,80.108 314.535 C 79.717 314.103,76.710 310.141,73.425 305.730 L 67.454 297.709 83.090 265.105 C 91.689 247.172,98.918 232.505,99.154 232.512 C 99.390 232.518,104.384 245.553,110.252 261.477 M216.077 262.624 C 224.422 269.567,231.728 275.683,232.312 276.216 C 232.973 276.818,234.611 287.007,236.647 303.177 C 238.447 317.474,240.219 329.697,240.585 330.342 C 240.951 330.986,248.375 337.207,257.083 344.167 C 265.792 351.127,273.027 356.929,273.163 357.059 C 273.346 357.237,278.269 385.283,278.324 386.458 C 278.329 386.573,247.057 386.667,208.829 386.667 L 139.326 386.667 152.983 364.869 C 160.494 352.881,166.829 341.912,167.060 340.494 C 167.291 339.077,168.820 324.229,170.458 307.500 L 173.435 277.083 186.916 263.542 C 194.331 256.094,200.511 250.000,200.651 250.000 C 200.790 250.000,207.731 255.681,216.077 262.624 M296.658 313.542 C 313.805 346.198,329.477 376.010,331.485 379.792 L 335.136 386.667 313.948 386.667 L 292.761 386.667 290.076 370.208 C 286.350 347.369,288.181 350.514,270.264 336.177 C 261.723 329.342,254.436 323.550,254.070 323.306 C 252.648 322.358,247.388 275.855,248.524 274.272 C 251.676 269.879,264.525 254.167,264.966 254.167 C 265.250 254.167,279.512 280.885,296.658 313.542 M156.244 306.724 C 154.566 323.405,152.981 337.435,152.722 337.902 C 152.463 338.368,145.530 349.531,137.316 362.708 L 122.380 386.667 107.023 386.667 C 98.577 386.667,91.667 386.417,91.667 386.113 C 91.667 385.808,104.480 358.593,120.140 325.635 L 148.614 265.713 153.955 271.054 L 159.296 276.395 156.244 306.724 M346.559 310.000 C 350.592 320.313,353.639 328.855,353.330 328.983 C 353.022 329.111,350.568 328.642,347.876 327.941 C 341.010 326.153,338.209 326.337,332.931 328.926 L 328.325 331.185 323.731 326.648 C 321.115 324.064,319.324 321.626,319.570 320.983 C 319.939 320.022,329.635 303.983,336.536 292.920 C 337.679 291.088,338.751 289.963,338.920 290.420 C 339.089 290.876,342.527 299.688,346.559 310.000 M67.909 322.500 C 78.811 337.198,79.618 337.252,92.890 324.157 L 102.191 314.980 105.244 316.037 L 108.297 317.094 91.857 351.847 L 75.417 386.600 50.119 386.633 C 27.290 386.663,24.871 386.537,25.332 385.337 C 27.750 379.037,60.417 312.602,60.852 313.101 C 61.164 313.458,64.340 317.688,67.909 322.500 M350.690 343.278 C 355.882 344.602,360.246 345.812,360.388 345.968 C 360.891 346.518,375.833 385.153,375.833 385.904 C 375.833 386.331,370.432 386.663,363.542 386.658 L 351.250 386.649 340.670 366.449 L 330.091 346.250 335.254 343.582 C 341.479 340.365,339.430 340.406,350.690 343.278 " stroke="none" fill="#000000" fill-rule="evenodd"></path></g></svg>