<svg id="svg" version="1.1" xmlns="http://www.w3.org/2000/svg" xmlns:xlink="http://www.w3.org/1999/xlink" width="400" height="400" viewBox="0, 0, 400,400"><g id="svgg"><path id="path0" d="M107.297 99.337 C 105.348 100.331,103.735 102.479,101.630 106.887 C 90.306 130.597,61.015 131.602,53.405 108.542 C 49.638 97.131,34.744 98.525,34.744 110.289 C 34.744 115.076,39.968 125.252,45.573 131.385 C 60.853 148.104,90.065 148.233,106.919 131.655 L 111.704 126.949 116.493 131.608 C 133.386 148.041,160.607 148.041,177.491 131.608 L 182.278 126.949 186.902 131.574 C 203.270 147.949,230.212 148.048,247.992 131.799 L 252.858 127.352 257.569 131.869 C 274.350 147.959,300.707 147.973,318.266 131.901 L 323.392 127.209 328.737 132.157 C 350.580 152.380,384.306 146.384,396.935 120.033 C 402.478 108.465,400.291 101.114,391.305 101.114 C 385.758 101.114,384.561 102.134,380.796 110.068 C 370.315 132.154,343.827 130.073,333.056 106.318 C 327.506 94.077,319.010 94.930,312.268 108.405 C 300.690 131.549,274.129 130.657,262.790 106.744 C 256.960 94.449,247.896 94.985,242.065 107.970 C 231.737 130.967,204.011 130.822,192.734 107.712 C 186.380 94.689,178.030 94.585,171.889 107.452 C 160.636 131.030,133.403 131.140,122.193 107.652 C 117.961 98.784,113.391 96.233,107.297 99.337 M71.446 178.685 C 70.345 179.456,68.055 182.845,66.358 186.215 C 54.663 209.438,29.835 210.689,19.084 188.596 C 15.447 181.123,14.131 180.020,8.807 179.984 C -0.395 179.920,-2.653 187.777,3.204 199.483 C 16.124 225.309,49.660 230.840,71.807 210.798 L 77.228 205.893 81.516 210.247 C 97.842 226.822,124.312 226.973,142.412 210.594 L 147.606 205.893 151.895 210.247 C 168.659 227.267,197.883 226.694,214.660 209.017 L 217.738 205.773 221.787 209.707 C 239.906 227.315,267.963 227.009,285.038 209.017 L 288.117 205.773 292.165 209.707 C 307.026 224.148,330.146 227.081,346.638 216.617 C 364.629 205.201,371.528 179.955,356.655 179.955 C 350.921 179.955,349.584 181.023,346.091 188.383 C 335.560 210.574,308.951 209.068,298.347 185.682 C 292.777 173.398,283.719 173.779,277.574 186.555 C 266.349 209.892,239.664 209.892,228.440 186.555 C 222.295 173.779,213.236 173.398,207.666 185.682 C 196.686 209.898,169.714 210.119,157.634 186.093 C 153.811 178.488,152.390 177.283,147.250 177.283 C 142.526 177.283,140.225 179.191,137.182 185.633 C 125.813 209.694,98.356 210.077,87.204 186.329 C 83.077 177.542,77.169 174.676,71.446 178.685 M107.052 256.754 C 105.849 257.359,103.533 260.642,101.561 264.535 C 89.560 288.234,64.194 289.556,53.877 267.021 C 49.768 258.045,42.811 255.492,37.348 260.956 C 33.642 264.662,33.813 269.148,37.992 277.837 C 50.960 304.797,87.394 310.018,108.373 287.922 L 111.496 284.633 116.420 289.321 C 133.463 305.548,160.595 305.564,177.384 289.358 L 182.279 284.633 186.885 289.192 C 203.443 305.585,230.749 305.614,248.045 289.258 L 253.007 284.566 256.793 288.430 C 273.739 305.729,299.618 306.119,318.421 289.360 L 323.448 284.879 328.094 289.244 C 342.221 302.517,361.115 305.464,378.315 297.079 C 398.104 287.432,407.898 258.352,391.358 258.352 C 386.582 258.352,384.189 260.359,381.309 266.777 C 371.073 289.590,343.973 288.078,333.095 264.086 C 327.693 252.173,318.361 252.679,312.687 265.195 C 301.874 289.041,274.288 288.455,262.670 264.132 C 256.958 252.175,248.244 252.613,242.258 265.156 C 230.921 288.910,204.606 288.587,192.430 264.545 C 186.272 252.385,177.752 252.320,172.147 264.392 C 160.933 288.543,133.451 288.923,122.074 265.085 C 118.099 256.757,112.839 253.840,107.052 256.754 " stroke="none" fill="#000000" fill-rule="evenodd"></path></g></svg>