<svg aria-hidden="true" style="position: absolute; width: 0; height: 0; overflow: hidden;" version="1.1" xmlns="http://www.w3.org/2000/svg" xmlns:xlink="http://www.w3.org/1999/xlink">
<defs>
<symbol id="icon-car" viewBox="0 0 32 32">
<path d="M6.584 3.723c-1.269 0.396-1.408 0.625-3.003 4.935l-1.212 3.273-0.869 0.855c-1.584 1.559-1.508 1.144-1.485 8.034l0.018 5.47 0.218 0.461c0.283 0.597 0.775 1.089 1.372 1.372l0.461 0.218h3.35l0.461-0.218c1.147-0.543 1.58-1.325 1.612-2.91l0.022-1.077h16.938l0.022 1.077c0.032 1.584 0.465 2.367 1.612 2.91l0.461 0.218h3.35l0.461-0.218c0.597-0.283 1.089-0.775 1.372-1.372l0.218-0.461 0.018-5.601c0.022-6.864 0.073-6.543-1.25-7.973l-0.626-0.677-1.259-3.404c-1.552-4.195-1.76-4.534-3.016-4.907-0.492-0.146-18.783-0.151-19.249-0.006zM25.51 5.137c0.548 0.249 0.661 0.45 1.461 2.601 0.41 1.103 0.907 2.436 1.103 2.963l0.357 0.957-0.72 0.020c-0.842 0.023-0.754 0.070-0.881-0.474-1.126-4.841-8.177-4.611-9.22 0.301l-0.040 0.188h-6.776c-6.42 0-6.774-0.006-6.744-0.12 0.179-0.667 2.151-5.775 2.303-5.966 0.226-0.284 0.549-0.485 0.888-0.552 0.578-0.115 18.008-0.036 18.269 0.083zM23.034 9.193c1.123 0.299 2.131 1.281 2.373 2.311l0.044 0.188h-3.187c-3.665 0-3.342 0.081-2.948-0.742 0.665-1.388 2.264-2.143 3.718-1.757zM29.633 13.659c0.308 0.335 0.615 0.749 0.718 0.968l0.179 0.382v6.792l-0.206 0.293c-0.125 0.177-0.34 0.362-0.545 0.467l-0.339 0.175-13.195 0.018c-15.261 0.021-14.174 0.081-14.672-0.808l-0.171-0.305-0.022-2.696c-0.032-3.931-0.001-4.062 1.237-5.239l0.679-0.645 25.799 0.013 0.539 0.586zM3.394 15.975l-0.18 0.18v4.202l0.361 0.36h5.775l0.361-0.36v-4.202l-0.361-0.361h-5.775l-0.18 0.18zM22.471 15.975l-0.18 0.18v4.202l0.361 0.36h5.775l0.361-0.36v-4.202l-0.361-0.361h-5.775l-0.18 0.18zM12.205 16.712c-0.306 0.306-0.306 0.731 0 1.037l0.165 0.165h7.26l0.165-0.165c0.306-0.306 0.306-0.731 0-1.037l-0.165-0.165h-7.26l-0.165 0.165zM8.342 18.256v1.094h-3.761v-2.188h3.761v1.094zM27.419 18.256v1.094h-3.761v-2.188h3.761v1.094zM12.205 18.832c-0.306 0.306-0.306 0.731 0 1.037l0.165 0.165h7.26l0.165-0.165c0.306-0.306 0.306-0.731 0-1.037l-0.165-0.165h-7.26l-0.165 0.165zM4.095 24.123l2.077 0.021-0.033 0.848c-0.065 1.69-0.567 2.067-2.663 2.002-1.73-0.054-2.109-0.488-2.109-2.419v-0.773l0.325 0.15c0.308 0.142 0.432 0.151 2.402 0.171zM30.566 25.699c-0.171 0.937-0.67 1.253-2.043 1.296-2.096 0.065-2.598-0.312-2.663-2.002l-0.033-0.848 2.077-0.021c1.93-0.019 2.099-0.031 2.385-0.162l0.308-0.141 0.019 0.746c0.011 0.41-0.012 0.92-0.051 1.133z"></path>
</symbol>
<symbol id="icon-cycle" viewBox="0 0 32 32">
<path d="M7.718 2.663c-1.123 0.556-1.113 2.207 0.016 2.8 0.22 0.115 0.416 0.144 1.133 0.167l0.867 0.028 0.864 1.881-0.998 2.111c-0.884 1.871-1.013 2.107-1.133 2.078-2.506-0.611-4.41-0.273-6.099 1.084-4.095 3.291-2.676 9.87 2.413 11.184l0.629 0.163-5.411 0.007v1.129h31.867v-1.129l-2.241-0.005c-2.233-0.005-2.24-0.005-1.909-0.123 5.344-1.907 5.799-9.411 0.724-11.949-1.312-0.656-3.261-0.863-4.567-0.485-0.288 0.083-0.533 0.142-0.545 0.13-0.034-0.034-3.21-6.906-3.252-7.036-0.035-0.109 0.072-0.116 1.634-0.116h1.671l0.226 0.226c0.519 0.519 0.173 1.193-0.664 1.292-1.103 0.13-0.888 1.201 0.222 1.109 2.022-0.167 2.503-2.785 0.665-3.618-0.28-0.127-0.43-0.135-2.608-0.136-3.157-0.002-3.041-0.12-2.037 2.068 0.371 0.808 0.691 1.51 0.71 1.56 0.029 0.075-0.642 0.087-4.099 0.073l-4.134-0.017-0.318-0.697c-0.175-0.383-0.32-0.715-0.321-0.737s0.177-0.059 0.397-0.082c1.477-0.154 1.871-2.124 0.536-2.681-0.687-0.287-3.807-0.49-4.239-0.277zM11.536 4.007c0.128 0.079 0.098 0.362-0.046 0.439-0.184 0.098-3.024 0.092-3.212-0.008-0.364-0.191-0.316-0.676 0.078-0.797 0.123-0.038 3.077 0.302 3.18 0.365zM19.732 8.415c-0.032 0.064-0.816 1.722-1.743 3.685l-1.686 3.568-0.734-0.004-1.66-3.626c-0.913-1.994-1.67-3.652-1.682-3.683s1.684-0.057 3.77-0.057c3.589 0 3.789 0.006 3.735 0.116zM12.896 12.555l1.643 3.591-0.266 0.302c-0.146 0.166-0.3 0.417-0.342 0.558l-0.077 0.256h-1.095l-0.047-0.349c-0.228-1.681-1.295-3.42-2.673-4.356-0.331-0.225-0.403-0.304-0.358-0.394 0.030-0.062 0.382-0.808 0.781-1.656s0.74-1.543 0.759-1.543 0.773 1.616 1.676 3.591zM21.548 10.638l0.737 1.6-0.47 0.315c-4.326 2.896-3.432 9.725 1.504 11.479 0.345 0.123 0.244 0.124-7.849 0.124-7.173-0-8.145-0.012-7.768-0.093 2.542-0.545 4.444-2.506 4.956-5.111l0.11-0.562 1.075 0 0.119 0.29c0.587 1.429 2.669 1.716 3.629 0.502 0.652-0.825 0.622-2.089-0.067-2.817l-0.188-0.199 1.704-3.598c0.937-1.979 1.719-3.583 1.738-3.564s0.366 0.754 0.771 1.634zM7.752 12.714c0.192 0.061 0.337 0.13 0.323 0.155-0.289 0.484-2.232 4.773-2.232 4.926 0 0.584 0.061 0.596 3.166 0.596h2.615l-0.045 0.249c-0.751 4.144-5.734 5.857-8.794 3.023-3.112-2.881-1.739-7.979 2.427-9.013 0.529-0.131 2.042-0.093 2.54 0.064zM26.728 12.681c4.944 1.256 5.5 7.994 0.824 10.001-4.39 1.885-8.85-2.736-6.83-7.077 0.425-0.914 1.629-2.266 2.013-2.26 0.039 0.001 0.559 1.069 1.157 2.373 1.197 2.612 1.211 2.635 1.609 2.635 0.78 0 0.723-0.307-0.574-3.118-0.604-1.308-1.073-2.403-1.043-2.433 0.252-0.252 2.033-0.328 2.844-0.122zM9.486 13.571c1.084 0.795 1.877 2.097 2.098 3.442l0.041 0.249h-2.161c-1.188 0-2.161-0.022-2.161-0.048 0-0.073 1.809-3.869 1.844-3.869 0.017 0 0.169 0.102 0.339 0.226zM25.68 13.672c-0.398 0.313-0.268 0.877 0.229 0.997 0.155 0.037 0.461 0.128 0.68 0.202 0.677 0.228 1.029 0.081 1.029-0.43 0-0.548-1.475-1.132-1.938-0.768zM28.204 15.206c-0.297 0.174-0.283 0.478 0.057 1.166 0.343 0.696 0.421 1.385 0.263 2.322-0.161 0.954 0.901 1.004 1.125 0.053 0.414-1.759-0.531-4.074-1.445-3.541zM2.429 16.326c-0.979 1.082 0.352 5.098 1.54 4.647 0.454-0.173 0.469-0.596 0.038-1.115-0.677-0.815-0.803-1.384-0.68-3.050 0.040-0.54-0.556-0.86-0.898-0.482zM16.449 16.929c0.661 0.403 0.638 1.353-0.042 1.751-0.635 0.371-1.491-0.117-1.491-0.851 0-0.786 0.876-1.3 1.533-0.9zM5.046 20.863c-0.37 0.193-0.4 0.794-0.048 0.963 0.645 0.309 1.68 0.317 1.842 0.014 0.258-0.482 0.027-0.791-0.671-0.898-0.307-0.047-0.648-0.103-0.758-0.125-0.113-0.023-0.271-0.002-0.365 0.047zM0.664 28.548c-0.18 0.18-0.18 0.616 0 0.797 0.129 0.129 0.221 0.133 3.585 0.133 3.918 0 3.718 0.029 3.718-0.531s0.201-0.531-3.718-0.531c-3.364 0-3.456 0.003-3.585 0.133zM11.866 28.498c-0.275 0.209-0.262 0.763 0.020 0.914 0.273 0.146 8.014 0.082 8.163-0.068 0.19-0.19 0.179-0.597-0.021-0.785l-0.154-0.144h-3.95c-3.057 0-3.975 0.019-4.059 0.083zM24.025 28.541c-0.118 0.096-0.155 0.192-0.155 0.405 0 0.556-0.173 0.531 3.744 0.531h3.433l0.144-0.154c0.198-0.211 0.193-0.574-0.009-0.764l-0.154-0.144h-3.424c-3.261 0-3.431 0.006-3.579 0.126z"></path>
</symbol>
<symbol id="icon-hiking" viewBox="0 0 32 32">
<path d="M7.938 0.069c-2.084 0.436-3.843 1.972-4.44 3.876-0.114 0.363-0.13 0.381-0.415 0.453-3.077 0.775-4.137 4.884-1.851 7.171 1.387 1.387 4.071 1.739 3.539 0.464-0.099-0.237-0.382-0.364-0.808-0.365-2.548-0.005-3.773-3.608-1.842-5.415 1.867-1.746 5.276-0.493 5.28 1.942 0.001 0.358 0.123 0.729 0.265 0.805 0.338 0.181 0.854-0.005 0.877-0.316 0.155-2.105-1.832-4.417-3.796-4.417-0.19 0-0.192 0.009 0.135-0.623 0.948-1.835 3.226-2.879 5.252-2.407 1.937 0.451 3.665 2.456 3.667 4.258 0 0.388 0.118 0.76 0.265 0.839 0.357 0.191 0.861-0.011 0.874-0.349 0.096-2.642-1.728-5.107-4.305-5.819-0.468-0.129-2.235-0.192-2.695-0.096zM24.045 8.867c-1.356 0.168-2.451 0.746-3.702 1.958-0.743 0.72-0.844 1.189-0.304 1.415 0.327 0.137 0.49 0.045 1.294-0.726 1.936-1.859 4.554-2.091 6.355-0.563l0.254 0.216-0.321 0.246c-0.655 0.502-0.754 0.623-0.754 0.917 0 0.685 0.545 0.732 1.312 0.113 0.862-0.696 1.289-0.816 1.859-0.524 1.063 0.545 1.131 1.953 0.138 2.856-0.771 0.7-0.502 0.654-3.997 0.692-3.438 0.038-3.244 0.005-3.244 0.546 0 0.543-0.148 0.521 3.399 0.521 3.784 0 3.677 0.024 4.776-1.052 1.737-1.699 0.825-4.665-1.476-4.801-0.52-0.031-0.541-0.039-0.866-0.33-1.262-1.133-3.039-1.691-4.722-1.483zM16.181 9.683c-0.084 0.063-4.378 8.992-5.641 11.731l-0.176 0.381-0.46-1.247c-1.551-4.204-1.461-4.014-1.904-4.014-0.389 0-0.316-0.138-3.964 7.444-3.683 7.653-3.66 7.599-3.369 7.889 0.211 0.211 30.456 0.211 30.667 0 0.263-0.263 0.206-0.443-1.764-5.498-1.962-5.037-1.961-5.035-2.369-5.035-0.351 0-0.366 0.019-1.42 1.751l-0.965 1.584-3.891-7.416c-2.14-4.079-3.943-7.469-4.008-7.534-0.137-0.139-0.57-0.159-0.736-0.035zM18.602 15.3c1.019 1.943 1.889 3.613 1.933 3.71 0.074 0.163-1.147 1.882-1.404 1.978-0.031 0.011-0.688-0.506-1.461-1.15-1.859-1.549-1.581-1.549-3.149 0.010l-1.188 1.181-0.433-0.429c-0.238-0.236-0.433-0.459-0.433-0.495 0-0.329 4.109-8.679 4.191-8.517 0.050 0.099 0.925 1.769 1.944 3.713zM6 11.867c-0.089 0.089-0.133 0.222-0.133 0.4 0 0.491 0.104 0.533 1.304 0.533 0.571 0 1.093-0.029 1.16-0.065 0.291-0.156 0.291-0.78 0-0.936-0.256-0.137-2.182-0.081-2.331 0.068zM8.82 20.918l0.854 2.316-0.507 1.078-0.463-0.156c-0.812-0.274-0.891-0.252-1.613 0.457-0.372 0.365-0.648 0.587-0.682 0.55-0.031-0.035-0.272-0.352-0.535-0.704l-0.478-0.642 1.251-2.608c0.688-1.435 1.266-2.608 1.285-2.607s0.418 1.043 0.888 2.317zM17.286 21.010c0.668 0.555 1.252 1.045 1.299 1.087 0.053 0.048 0.184 0.863 0.347 2.157 0.144 1.144 0.286 2.122 0.315 2.173s0.623 0.549 1.32 1.106c0.697 0.557 1.276 1.021 1.286 1.031 0.015 0.014 0.408 2.258 0.413 2.352 0 0.009-2.501 0.017-5.56 0.017h-5.56l1.093-1.744c0.601-0.959 1.108-1.837 1.126-1.95s0.141-1.301 0.272-2.64l0.238-2.433 1.078-1.083c0.593-0.596 1.088-1.083 1.099-1.083s0.566 0.454 1.234 1.010zM23.733 25.083c1.372 2.612 2.626 4.997 2.786 5.3l0.292 0.55h-3.39l-0.215-1.317c-0.298-1.827-0.152-1.576-1.585-2.722-0.683-0.547-1.266-1.010-1.296-1.030-0.114-0.076-0.535-3.796-0.444-3.923 0.252-0.351 1.28-1.608 1.315-1.608 0.023 0 1.164 2.137 2.535 4.75zM12.5 24.538c-0.134 1.334-0.261 2.457-0.282 2.494s-0.575 0.93-1.232 1.984l-1.195 1.917h-1.229c-0.676 0-1.228-0.020-1.228-0.044s1.025-2.202 2.278-4.838l2.278-4.794 0.855 0.855-0.244 2.426zM27.725 24.8c0.323 0.825 0.566 1.508 0.542 1.519s-0.221-0.027-0.436-0.083c-0.549-0.143-0.773-0.128-1.196 0.079l-0.368 0.181-0.368-0.363c-0.209-0.207-0.353-0.402-0.333-0.453 0.030-0.077 0.805-1.36 1.357-2.245 0.091-0.147 0.177-0.237 0.191-0.2s0.289 0.741 0.611 1.566zM5.433 25.8c0.872 1.176 0.937 1.18 1.998 0.133l0.744-0.734 0.488 0.169-2.63 5.56-2.024 0.003c-1.826 0.002-2.020-0.008-1.983-0.104 0.193-0.504 2.807-5.819 2.842-5.779 0.025 0.029 0.279 0.367 0.565 0.752zM28.055 27.462c0.415 0.106 0.764 0.203 0.776 0.215 0.040 0.044 1.236 3.135 1.236 3.195 0 0.034-0.432 0.061-0.983 0.060l-0.983-0.001-1.693-3.232 0.413-0.213c0.498-0.257 0.334-0.254 1.235-0.024z"></path>
</symbol>
<symbol id="icon-water" viewBox="0 0 32 32">
<path d="M8.584 7.947c-0.156 0.080-0.285 0.251-0.453 0.604-0.906 1.897-3.249 1.977-3.858 0.132-0.301-0.913-1.493-0.801-1.493 0.14 0 0.383 0.418 1.197 0.866 1.688 1.222 1.338 3.559 1.348 4.908 0.022l0.383-0.376 0.383 0.373c1.351 1.315 3.529 1.315 4.88 0l0.383-0.373 0.37 0.37c1.309 1.31 3.465 1.318 4.887 0.018l0.389-0.356 0.377 0.361c1.342 1.287 3.451 1.288 4.856 0.003l0.41-0.375 0.428 0.396c1.747 1.618 4.446 1.138 5.456-0.97 0.443-0.925 0.268-1.514-0.45-1.514-0.444 0-0.54 0.082-0.841 0.716-0.838 1.767-2.958 1.6-3.819-0.3-0.444-0.979-1.124-0.911-1.663 0.167-0.926 1.852-3.051 1.78-3.958-0.133-0.466-0.984-1.192-0.941-1.658 0.098-0.826 1.84-3.044 1.828-3.946-0.021-0.508-1.042-1.176-1.050-1.668-0.021-0.9 1.886-3.079 1.895-3.976 0.016-0.339-0.709-0.704-0.914-1.192-0.665zM5.716 14.295c-0.088 0.062-0.271 0.333-0.407 0.602-0.936 1.858-2.922 1.958-3.782 0.19-0.291-0.598-0.396-0.686-0.822-0.689-0.736-0.005-0.917 0.623-0.448 1.56 1.034 2.066 3.716 2.509 5.488 0.905l0.434-0.392 0.343 0.348c1.306 1.326 3.424 1.338 4.872 0.028l0.416-0.376 0.343 0.348c1.341 1.362 3.679 1.316 5.021-0.098l0.246-0.26 0.324 0.315c1.45 1.409 3.694 1.384 5.060-0.055l0.246-0.26 0.324 0.315c1.189 1.155 3.038 1.39 4.358 0.553 1.439-0.913 1.991-2.933 0.801-2.933-0.459 0-0.566 0.085-0.845 0.674-0.842 1.775-2.971 1.655-3.82-0.216-0.446-0.983-1.17-0.952-1.662 0.070-0.898 1.867-3.033 1.867-3.931 0-0.492-1.022-1.216-1.053-1.662-0.070-0.878 1.937-3.036 1.955-4.003 0.033-0.306-0.608-0.42-0.705-0.831-0.705-0.378 0-0.562 0.153-0.805 0.668-0.91 1.925-3.106 1.956-3.998 0.056-0.33-0.703-0.803-0.932-1.261-0.612zM8.564 20.54c-0.096 0.048-0.282 0.311-0.439 0.622-0.96 1.896-2.989 2.002-3.815 0.199-0.329-0.718-0.885-0.922-1.322-0.485-0.296 0.296-0.283 0.655 0.052 1.35 1.037 2.157 3.952 2.574 5.63 0.807l0.25-0.263 0.394 0.375c1.363 1.298 3.534 1.299 4.877 0.003l0.392-0.378 0.368 0.365c1.325 1.311 3.509 1.314 4.893 0.005l0.397-0.375 0.303 0.309c1.356 1.384 3.426 1.415 4.93 0.074l0.402-0.358 0.372 0.349c1.13 1.062 2.642 1.298 4.018 0.627 1.583-0.772 2.367-3.098 1.043-3.098-0.382 0-0.574 0.161-0.804 0.674-0.819 1.825-2.987 1.704-3.857-0.215-0.432-0.953-1.179-0.913-1.633 0.089-0.865 1.908-3.072 1.861-4.001-0.085-0.457-0.957-1.154-0.922-1.633 0.082-0.907 1.9-3.012 1.874-3.986-0.049-0.493-0.973-1.174-0.978-1.623-0.012-0.897 1.932-3.096 1.962-4.006 0.055-0.318-0.666-0.739-0.9-1.202-0.666z"></path>
</symbol>
</defs>
</svg>
